<svg xmlns="http://www.w3.org/2000/svg" xmlns:svg="http://www.w3.org/2000/svg" xmlns:xlink="http://www.w3.org/1999/xlink" id="svg161" width="1598" height="1658.277" version="1.1" viewBox="0 0 1598 1658.277"><metadata id="metadata165"/><title id="title2">microbit</title><defs id="defs5"><linearGradient id="linearGradient1550"><stop style="stop-color:#fff;stop-opacity:1" id="stop1546" offset="0"/><stop style="stop-color:#fff;stop-opacity:0" id="stop1548" offset="1"/></linearGradient><path id="path-1" d="M 0,64 C 0,28.7 28.7,0 64,0 h 1170 c 35.3,0 64,28.7 64,64 v 927 c 0,35.3 -28.7,64 -64,64 H 64 C 28.7,1055 0,1026.3 0,991 Z m 1263,476 c 6.6,0 12,-5.4 12,-12 0,-6.6 -5.4,-12 -12,-12 -6.6,0 -12,5.4 -12,12 0,6.6 5.4,12 12,12 z M 39,540 c 6.6,0 12,-5.4 12,-12 0,-6.6 -5.4,-12 -12,-12 -6.6,0 -12,5.4 -12,12 0,6.6 5.4,12 12,12 z m 71,389 c 28.7,0 52,-23.3 52,-52 0,-28.7 -23.3,-52 -52,-52 -28.7,0 -52,23.3 -52,52 0,28.7 23.3,52 52,52 z m 254,0 c 28.7,0 52,-23.3 52,-52 0,-28.7 -23.3,-52 -52,-52 -28.7,0 -52,23.3 -52,52 0,28.7 23.3,52 52,52 z m 285,0 c 28.7,0 52,-23.3 52,-52 0,-28.7 -23.3,-52 -52,-52 -28.7,0 -52,23.3 -52,52 0,28.7 23.3,52 52,52 z m 285,0 c 28.7,0 52,-23.3 52,-52 0,-28.7 -23.3,-52 -52,-52 -28.7,0 -52,23.3 -52,52 0,28.7 23.3,52 52,52 z m 253,0 c 28.7,0 52,-23.3 52,-52 0,-28.7 -23.3,-52 -52,-52 -28.7,0 -52,23.3 -52,52 0,28.7 23.3,52 52,52 z"/><clipPath id="clipPath992" clipPathUnits="userSpaceOnUse"><path style="clip-rule:evenodd" id="path990" d="m 80.639999,324.95999 -0.159996,0.16001 -0.319999,0.16 -0.480004,0.48001 -0.319999,0.63998 -0.160004,0.80002 v 27.19998 h 0.160004 v 0.80002 h 0.159996 v 0.31998 H 79.68 l 0.159996,0.16 V 356 H 80 l 0.32,0.16 0.160003,0.16001 0.32,0.16 1.599999,0.16 v -0.16 l 0.319999,-0.16 0.159996,-0.16001 0.32,-0.16 0.160004,-0.32001 0.159996,-0.16 0.160003,-0.31998 0.159996,-28.80002 H 83.68 v -0.32 h -0.160003 v -0.31998 L 83.040001,325.28 82.400002,324.95999 Z"/></clipPath><clipPath id="clipPath1002" clipPathUnits="userSpaceOnUse"><path style="clip-rule:evenodd" id="path1000" d="m 270.23999,324.95999 -0.31998,0.16001 -0.32,0.16 -0.48001,0.48001 -0.32001,0.63998 -0.15998,0.80002 v 27.19998 h 0.15998 v 0.80002 h 0.16 v 0.31998 H 269.12 l 0.16,0.16 V 356 h 0.16 l 0.32001,0.16 0.16,0.16001 0.31998,0.16 1.60001,0.16 v -0.16 l 0.32,-0.16 0.16001,-0.16001 0.32,-0.16 0.15998,-0.32001 0.16,-0.16 0.16001,-0.31998 0.16,-28.80002 h -0.16 v -0.32 h -0.16001 v -0.31998 L 272.48001,325.28 272.16,325.12 272,324.95999 Z"/></clipPath><clipPath id="clipPath1012" clipPathUnits="userSpaceOnUse"><path style="clip-rule:evenodd" id="path1010" d="m 330.72,324.95999 -0.32001,0.16001 -0.32,0.16 -0.47998,0.48001 -0.32001,0.63998 -0.16,0.80002 v 27.19998 h 0.16 v 0.80002 h 0.16 v 0.31998 h 0.16001 l 0.16,0.16 V 356 h 0.16 l 0.31998,0.16 0.16,0.16001 0.32001,0.16 1.60001,0.16 v -0.16 l 0.63998,-0.32001 0.48001,-0.48001 0.32001,-0.63998 0.16,-28.64002 h -0.16 v -0.32 l -0.16,-0.15998 H 333.44 v -0.32 l -0.16,-0.16001 -0.32001,-0.16 -0.16,-0.16 -0.31998,-0.16001 z"/></clipPath><clipPath id="clipPath1022" clipPathUnits="userSpaceOnUse"><path style="clip-rule:evenodd" id="path1020" d="M 0.32,-14.4 H 298.39999 V 228.16 H 0.32 Z"/></clipPath><clipPath id="clipPath1042" clipPathUnits="userSpaceOnUse"><path style="clip-rule:evenodd" id="path1040" d="m 264.48001,316.79999 -1.44,0.16 -0.80002,0.16001 -1.44,0.48001 -1.28,0.63998 -0.16,0.16 -0.31998,0.16001 -0.48001,0.48001 -0.32001,0.16 -0.95999,0.95999 -0.16,0.32001 -0.47999,0.47998 -0.16,0.32001 -0.16,0.16 -0.64002,1.28 -0.47999,1.44 -0.16001,0.79999 -0.15999,1.44 v 6.56 h 0.15999 v 2.08002 H 255.2 V 336 h 0.16 v 0.48001 h 0.16 v 0.47998 h 0.15999 v 0.64002 H 255.84 v 0.47998 H 256 V 338.56 h 0.16 v 0.48001 h 0.16001 v 0.31998 h 0.16 v 0.32 h 0.16 l 0.15998,0.16001 v 0.32 h 0.16 v 0.32001 H 257.12 v 0.31998 h 0.16 V 341.12 h 0.16 v 0.32 h 0.16001 l 0.16,0.16001 v 0.32 h 0.16 L 258.56,342.56 v 0.32 h 0.16 l 0.63999,0.63999 V 343.84 h 0.16 l 0.32001,0.32 0.32,0.16001 0.63999,0.63998 0.32001,0.16001 0.48001,0.48001 0.32,0.16 0.15998,0.16 0.64001,0.31998 0.16,0.16 1.60001,0.80002 0.16,0.15998 0.63999,0.16 1.92001,0.64001 0.63999,0.16001 0.95999,0.16 4.32001,0.16 v -0.16 l 0.95999,-0.16 0.96002,-0.32001 0.63998,-0.16 1.44001,-0.48001 0.64001,-0.31998 0.16,-0.16001 1.59998,-0.80001 0.16,-0.15998 0.32001,-0.16 0.48001,-0.48001 0.31998,-0.16 0.64001,-0.63999 0.32001,-0.16 0.63998,-0.64002 0.16001,-0.32 0.64001,-0.63999 0.15998,-0.32001 0.48001,-0.47998 0.16,-0.32 0.16,-0.16001 0.79999,-1.6 0.16001,-0.16001 0.32,-0.63998 0.48001,-1.44 0.15998,-0.64002 0.32,-0.95999 0.16001,-0.95999 0.16,-10.08002 h -0.16 V 324.16 h -0.16001 v -0.48001 h -0.16 v -0.47998 h -0.16 V 322.72 h -0.15998 v -0.32001 h -0.16 v -0.32 h -0.16 v -0.31998 H 285.44 V 321.44 l -0.16,-0.16 h -0.16 v -0.32001 l -0.47999,-0.47998 h -0.16 V 320.16 l -0.96002,-0.95999 -0.31998,-0.16 -0.48001,-0.48001 -0.32001,-0.16001 -0.16,-0.16 -1.28,-0.63998 -1.44,-0.48001 -0.79999,-0.16001 -1.6,-0.16 z"/></clipPath><clipPath id="clipPath1052" clipPathUnits="userSpaceOnUse"><path style="clip-rule:evenodd" id="path1050" d="m 324.95999,316.79999 -1.44,0.16 -0.79999,0.16001 -1.44,0.48001 -1.28,0.63998 -0.16,0.16 -0.32001,0.16001 -0.47998,0.48001 -0.32001,0.16 -0.95999,0.95999 -0.16,0.32001 -0.48001,0.47998 -0.16001,0.32001 -0.16,0.16 -0.63999,1.28 -0.48001,1.44 -0.16,0.79999 -0.16,1.44 v 6.56 h 0.16 v 2.08002 h 0.16 V 336 H 315.84 v 0.48001 H 316 v 0.47998 h 0.16 v 0.64002 h 0.16001 v 0.47998 h 0.16 V 338.56 h 0.16 v 0.48001 h 0.15998 v 0.31998 h 0.16 v 0.32 H 317.12 l 0.16,0.16001 v 0.32 h 0.16 v 0.32001 h 0.16001 v 0.31998 h 0.16 V 341.12 h 0.16 v 0.32 h 0.15998 l 0.16,0.16001 v 0.32 h 0.16 l 0.64002,0.63999 v 0.32 h 0.16 l 0.63999,0.63999 V 343.84 H 320 l 0.32001,0.32 0.32,0.16001 0.63999,0.63998 0.32001,0.16001 0.47998,0.48001 0.32,0.16 0.16001,0.16 0.64001,0.31998 0.15998,0.16 1.6,0.80002 0.16001,0.15998 0.64001,0.16 1.91998,0.64001 0.64002,0.16001 0.95999,0.16 4.32001,0.16 v -0.16 l 0.95999,-0.16 0.64001,-0.16001 2.4,-0.80001 1.6,-0.79999 0.15998,-0.16001 0.96002,-0.47998 0.32,-0.32 0.31998,-0.16001 0.64002,-0.64001 0.32,-0.15998 1.28,-1.28002 0.15998,-0.31998 0.48001,-0.48001 0.16,-0.32001 0.48001,-0.47998 0.63999,-1.28 0.16,-0.16 0.64001,-1.28 0.63999,-1.92001 0.16,-0.63999 0.16,-0.48001 0.16001,-0.95999 0.16,-10.08002 h -0.16 V 324.16 H 346.88 v -0.48001 h -0.16 v -0.47998 h -0.16 V 322.72 h -0.16001 v -0.32001 h -0.16 v -0.32 h -0.16 v -0.31998 h -0.15998 V 321.44 l -0.16,-0.16 h -0.16 v -0.32001 L 345.12,320.48001 h -0.16001 V 320.16 L 344,319.20001 l -0.32001,-0.16 -0.47998,-0.48001 -0.32001,-0.16001 -0.16,-0.16 -1.28,-0.63998 -1.44,-0.48001 -0.79999,-0.16001 -1.6,-0.16 z"/></clipPath><clipPath id="clipPath1068" clipPathUnits="userSpaceOnUse"><path style="clip-rule:evenodd" id="path1066" d="M 0,25697.301 H 734.23999 V 26056.5 H 0 Z"/></clipPath><clipPath id="clipPath1080" clipPathUnits="userSpaceOnUse"><path style="clip-rule:evenodd" id="path1078" d="m 17722.4,25697.301 h 2400.299 V 26056.5 H 17722.4 Z"/></clipPath><clipPath id="clipPath1094" clipPathUnits="userSpaceOnUse"><path style="clip-rule:evenodd" id="path1092" d="M 56.16,56.16 H 193.44 V 80.639999 H 56.16 Z"/></clipPath><clipPath id="clipPath1100" clipPathUnits="userSpaceOnUse"><path style="clip-rule:evenodd" id="path1098" d="M 56.16,56.16 H 193.44 V 80.800003 H 56.16 Z"/></clipPath><clipPath id="clipPath1112" clipPathUnits="userSpaceOnUse"><path style="clip-rule:evenodd" id="path1110" d="M 56.16,80.639999 H 232 V 100.64 H 56.16 Z"/></clipPath><clipPath id="clipPath1118" clipPathUnits="userSpaceOnUse"><path style="clip-rule:evenodd" id="path1116" d="m 56.16,80.639999 h 176 V 100.8 h -176 z"/></clipPath><clipPath id="clipPath1130" clipPathUnits="userSpaceOnUse"><path style="clip-rule:evenodd" id="path1128" d="m 56.16,100.64 h 287.68 v 29.75999 H 56.16 Z"/></clipPath><clipPath id="clipPath1142" clipPathUnits="userSpaceOnUse"><path style="clip-rule:evenodd" id="path1140" d="M 71.519997,130.39999 H 343.84 v 91.20002 H 71.519997 Z"/></clipPath><clipPath id="clipPath1154" clipPathUnits="userSpaceOnUse"><path style="clip-rule:evenodd" id="path1152" d="M 76.160004,221.60001 H 343.84 V 243.52 H 76.160004 Z"/></clipPath><clipPath id="clipPath1160" clipPathUnits="userSpaceOnUse"><path style="clip-rule:evenodd" id="path1158" d="M 76.160004,221.60001 H 344 v 22.07998 H 76.160004 Z"/></clipPath><clipPath id="clipPath1172" clipPathUnits="userSpaceOnUse"><path style="clip-rule:evenodd" id="path1170" d="m 59.68,243.52 h 291.04 v 55.52001 H 59.68 Z"/></clipPath><clipPath id="clipPath1178" clipPathUnits="userSpaceOnUse"><path style="clip-rule:evenodd" id="path1176" d="m 59.68,243.52 h 291.2 v 55.68001 H 59.68 Z"/></clipPath><clipPath id="clipPath1190" clipPathUnits="userSpaceOnUse"><path style="clip-rule:evenodd" id="path1188" d="m 71.360001,299.04001 h 20.159996 v 20.63998 H 71.360001 Z"/></clipPath><clipPath id="clipPath1196" clipPathUnits="userSpaceOnUse"><path style="clip-rule:evenodd" id="path1194" d="M 71.360001,299.04001 H 91.519997 V 319.84 H 71.360001 Z"/></clipPath><clipPath id="clipPath1208" clipPathUnits="userSpaceOnUse"><path style="clip-rule:evenodd" id="path1206" d="m 260.79999,299.04001 h 20.16 v 20.63998 h -20.16 z"/></clipPath><clipPath id="clipPath1214" clipPathUnits="userSpaceOnUse"><path style="clip-rule:evenodd" id="path1212" d="m 260.79999,299.04001 h 20.16 V 319.84 h -20.16 z"/></clipPath><clipPath id="clipPath1226" clipPathUnits="userSpaceOnUse"><path style="clip-rule:evenodd" id="path1224" d="m 321.28,299.04001 h 20.16 v 20.63998 h -20.16 z"/></clipPath><clipPath id="clipPath1232" clipPathUnits="userSpaceOnUse"><path style="clip-rule:evenodd" id="path1230" d="m 321.28,299.04001 h 20.16 V 319.84 h -20.16 z"/></clipPath><filter style="color-interpolation-filters:sRGB" id="filter1592-5" width="1.254" height="1.188" x="-.127" y="-.094"><feGaussianBlur id="feGaussianBlur1594-6" stdDeviation=".933"/></filter><linearGradient id="linearGradient1655" x1="-12.571" x2="-10.793" y1="324.55" y2="324.501" gradientTransform="matrix(5.8529501,0,0,5.8529501,127.4363,-799.85615)" gradientUnits="userSpaceOnUse" xlink:href="#linearGradient1550"/><linearGradient id="linearGradient1927" x1="-12.571" x2="-10.793" y1="324.55" y2="324.501" gradientTransform="matrix(5.8529501,0,0,5.8529501,952.45913,-799.85615)" gradientUnits="userSpaceOnUse" xlink:href="#linearGradient1550"/><linearGradient id="linearGradient1943" x1="-12.571" x2="-10.793" y1="324.55" y2="324.501" gradientTransform="matrix(5.8529501,0,0,5.8529501,1213.2422,-799.85615)" gradientUnits="userSpaceOnUse" xlink:href="#linearGradient1550"/></defs><g id="Page-1" transform="translate(150,150)" style="fill:none;fill-rule:evenodd;stroke:none;stroke-width:1"><g id="microbit" style="fill:none;fill-rule:evenodd"><mask id="mask-2" style="fill:#fff"><use style="fill:#fff;fill-rule:evenodd" id="use7" width="100%" height="100%" x="0" y="0" xlink:href="#path-1"/></mask><use id="Mask" width="100%" height="100%" x="0" y="0" xlink:href="#path-1" style="fill:#000;fill-rule:evenodd"/><g id="contacts" mask="url(#mask-2)" style="fill:#999;fill-rule:evenodd"><g style="fill:#999;fill-rule:evenodd" id="g36" transform="translate(17,816)"><rect id="pin-19" width="24" height="150" x="1240" y="102" style="fill:#999;fill-rule:evenodd"/><path id="big-pin-gnd" d="m 1109.1,65 h -0.1 v 182 h 123 V 65 h -0.1 c 0.1,-1.2 0.1,-2.3 0.1,-3.5 0,-34 -27.5,-61.5 -61.5,-61.5 -34,0 -61.5,27.5 -61.5,61.5 0,1.2 0,2.3 0.1,3.5 z m 61.4,46 c 27.9,0 50.5,-22.6 50.5,-50.5 0,-27.9 -22.6,-50.5 -50.5,-50.5 -27.9,0 -50.5,22.6 -50.5,50.5 0,27.9 22.6,50.5 50.5,50.5 z" style="fill:#999;fill-rule:evenodd"/><rect id="pin-18" width="24" height="150" x="1078" y="102" style="fill:#999;fill-rule:evenodd"/><rect id="pin-17" width="24" height="150" x="1047" y="102" style="fill:#999;fill-rule:evenodd"/><rect id="pin-16" width="24" height="150" x="1016" y="102" style="fill:#999;fill-rule:evenodd"/><rect id="pin-15" width="24" height="150" x="985" y="102" style="fill:#999;fill-rule:evenodd"/><path id="big-pin-3v" d="M 855.1,65 H 855 V 247 H 978 V 65 h -0.1 C 978,63.8 978,62.7 978,61.5 978,27.5 950.5,0 916.5,0 882.5,0 855,27.5 855,61.5 c 0,1.2 0,2.3 0.1,3.5 z m 61.4,46 C 944.4,111 967,88.4 967,60.5 967,32.6 944.4,10 916.5,10 888.6,10 866,32.6 866,60.5 c 0,27.9 22.6,50.5 50.5,50.5 z" style="fill:#999;fill-rule:evenodd"/><rect id="pin-14" width="24" height="150" x="824" y="102" style="fill:#999;fill-rule:evenodd"/><rect id="pin-13" width="24" height="150" x="793" y="102" style="fill:#999;fill-rule:evenodd"/><rect id="pin-12" width="24" height="150" x="762" y="102" style="fill:#999;fill-rule:evenodd"/><rect id="pin-11" width="24" height="150" x="731" y="102" style="fill:#999;fill-rule:evenodd"/><rect id="pin-10" width="24" height="150" x="700" y="102" style="fill:#999;fill-rule:evenodd"/><path id="big-pin-2" d="M 570.1,65 H 570 V 247 H 693 V 65 h -0.1 C 693,63.8 693,62.7 693,61.5 693,27.5 665.5,0 631.5,0 597.5,0 570,27.5 570,61.5 c 0,1.2 0,2.3 0.1,3.5 z m 61.4,46 C 659.4,111 682,88.4 682,60.5 682,32.6 659.4,10 631.5,10 603.6,10 581,32.6 581,60.5 c 0,27.9 22.6,50.5 50.5,50.5 z" style="fill:#999;fill-rule:evenodd"/><rect id="pin-9" width="24" height="150" x="539" y="102" style="fill:#999;fill-rule:evenodd"/><rect id="pin-8" width="24" height="150" x="508" y="102" style="fill:#999;fill-rule:evenodd"/><rect id="pin-7" width="24" height="150" x="477" y="102" style="fill:#999;fill-rule:evenodd"/><rect id="pin-6" width="24" height="150" x="446" y="102" style="fill:#999;fill-rule:evenodd"/><rect id="pin-5" width="24" height="150" x="415" y="102" style="fill:#999;fill-rule:evenodd"/><path id="big-pin-1" d="M 285.1,65 H 285 V 247 H 408 V 65 h -0.1 C 408,63.8 408,62.7 408,61.5 408,27.5 380.5,0 346.5,0 312.5,0 285,27.5 285,61.5 c 0,1.2 0,2.3 0.1,3.5 z m 61.4,46 C 374.4,111 397,88.4 397,60.5 397,32.6 374.4,10 346.5,10 318.6,10 296,32.6 296,60.5 c 0,27.9 22.6,50.5 50.5,50.5 z" style="fill:#999;fill-rule:evenodd"/><path id="pin-4" d="M 254,220 V 102 h 24 v 150 h -24 z" style="fill:#999;fill-rule:evenodd"/><rect id="pin-3" width="24" height="150" x="223" y="102" style="fill:#999;fill-rule:evenodd"/><rect id="pin-2" width="24" height="150" x="192" y="102" style="fill:#999;fill-rule:evenodd"/><rect id="pin-1" width="24" height="150" x="161" y="102" style="fill:#999;fill-rule:evenodd"/><path id="big-pin-0" d="M 31.1,65 H 31 V 247 H 154 V 65 h -0.1 C 154,63.8 154,62.7 154,61.5 154,27.5 126.5,0 92.5,0 58.5,0 31,27.5 31,61.5 c 0,1.2 0,2.3 0.1,3.5 z m 61.4,46 C 120.4,111 143,88.4 143,60.5 143,32.6 120.4,10 92.5,10 64.6,10 42,32.6 42,60.5 42,88.4 64.6,111 92.5,111 Z" style="fill:#999;fill-rule:evenodd"/><rect id="pin-0" width="24" height="150" x="0" y="102" style="fill:#999;fill-rule:evenodd"/></g></g><g id="leds" mask="url(#mask-2)" style="fill:#333;fill-rule:evenodd"><g style="fill:#333;fill-rule:evenodd" id="g64" transform="translate(436,330)"><rect id="led-0-0" width="20" height="42" x="0" y="0" style="fill:#111;fill-rule:evenodd"/><rect id="led-1-0" width="20" height="42" x="102" y="0" style="fill:#111;fill-rule:evenodd"/><rect id="led-2-0" width="20" height="42" x="203" y="0" style="fill:#111;fill-rule:evenodd"/><rect id="led-3-0" width="20" height="42" x="305" y="0" style="fill:#111;fill-rule:evenodd"/><rect id="led-4-0" width="20" height="42" x="406" y="0" style="fill:#111;fill-rule:evenodd"/><rect id="led-0-1" width="20" height="42" x="0" y="101" style="fill:#111;fill-rule:evenodd"/><rect id="led-1-1" width="20" height="42" x="102" y="101" style="fill:#111;fill-rule:evenodd"/><rect id="led-2-1" width="20" height="42" x="203" y="101" style="fill:#111;fill-rule:evenodd"/><rect id="led-3-1" width="20" height="42" x="305" y="101" style="fill:#111;fill-rule:evenodd"/><rect id="led-4-1" width="20" height="42" x="406" y="101" style="fill:#111;fill-rule:evenodd"/><rect id="led-0-2" width="20" height="42" x="0" y="203" style="fill:#111;fill-rule:evenodd"/><rect id="led-1-2" width="20" height="42" x="102" y="203" style="fill:#111;fill-rule:evenodd"/><rect id="led-2-2" width="20" height="42" x="203" y="203" style="fill:#111;fill-rule:evenodd"/><rect id="led-3-2" width="20" height="42" x="305" y="203" style="fill:#111;fill-rule:evenodd"/><rect id="led-4-2" width="20" height="42" x="406" y="203" style="fill:#111;fill-rule:evenodd"/><rect id="led-0-3" width="20" height="42" x="0" y="304" style="fill:#111;fill-rule:evenodd"/><rect id="led-1-3" width="20" height="42" x="102" y="304" style="fill:#111;fill-rule:evenodd"/><rect id="led-2-3" width="20" height="42" x="203" y="304" style="fill:#111;fill-rule:evenodd"/><rect id="led-3-3" width="20" height="42" x="305" y="304" style="fill:#111;fill-rule:evenodd"/><rect id="led-4-3" width="20" height="42" x="406" y="304" style="fill:#111;fill-rule:evenodd"/><rect id="led-0-4" width="20" height="42" x="0" y="405" style="fill:#111;fill-rule:evenodd"/><rect id="led-1-4" width="20" height="42" x="102" y="405" style="fill:#111;fill-rule:evenodd"/><rect id="led-2-4" width="20" height="42" x="203" y="405" style="fill:#111;fill-rule:evenodd"/><rect id="led-3-4" width="20" height="42" x="305" y="405" style="fill:#111;fill-rule:evenodd"/><rect id="led-4-4" width="20" height="42" x="406" y="405" style="fill:#111;fill-rule:evenodd"/></g></g><g id="labels" line-spacing="48" mask="url(#mask-2)" style="font-family:Helvetica;fill:none;fill-rule:evenodd"><g style="font-family:Helvetica;fill:none;fill-rule:evenodd" id="g129" transform="translate(89,249)"><text id="0" font-size="48" font-weight="normal" style="font-weight:400;font-size:48px;font-family:Helvetica;white-space:nowrap;display:block;fill:none;fill-rule:evenodd"><tspan style="font-size:48px;font-family:Helvetica;white-space:nowrap;fill:#fff;fill-rule:evenodd" id="tspan67" x="277" y="122">0</tspan></text><text id="text72" font-size="64" font-weight="bold" style="font-weight:700;font-size:64px;font-family:Helvetica;white-space:nowrap;display:block;fill:none;fill-rule:evenodd"><tspan style="font-weight:700;font-size:64px;font-family:Helvetica;white-space:nowrap;fill:#000;fill-rule:evenodd" id="tspan70" x="0" y="766">0</tspan></text><text id="1" font-size="64" font-weight="bold" style="font-weight:700;font-size:64px;font-family:Helvetica;white-space:nowrap;display:block;fill:none;fill-rule:evenodd"><tspan style="font-weight:700;font-size:64px;font-family:Helvetica;white-space:nowrap;fill:#000;fill-rule:evenodd" id="tspan74" x="255" y="766">1</tspan></text><text id="2" font-size="64" font-weight="bold" style="font-weight:700;font-size:64px;font-family:Helvetica;white-space:nowrap;display:block;fill:none;fill-rule:evenodd"><tspan style="font-weight:700;font-size:64px;font-family:Helvetica;white-space:nowrap;fill:#000;fill-rule:evenodd" id="tspan77" x="538" y="766">2</tspan></text><text id="3" font-size="64" font-weight="bold" letter-spacing="-1.2" style="font-weight:700;font-size:64px;font-family:Helvetica;letter-spacing:-1.20000005px;white-space:nowrap;display:block;fill:none;fill-rule:evenodd"><tspan style="font-weight:700;font-size:64px;font-family:Helvetica;letter-spacing:-1.20000005px;white-space:nowrap;fill:#000;fill-rule:evenodd" id="tspan80" x="803" y="766">3</tspan> <tspan style="font-weight:700;font-size:64px;font-family:Helvetica;letter-spacing:-1.20000005px;white-space:nowrap;fill:#000;fill-rule:evenodd" id="tspan82" x="837.4" y="766">V</tspan></text><text id="GND" font-size="56" font-weight="bold" letter-spacing="-1.1" style="font-weight:700;font-size:56px;font-family:Helvetica;letter-spacing:-1.10000002px;white-space:nowrap;display:block;fill:none;fill-rule:evenodd"><tspan style="font-weight:700;font-size:56px;font-family:Helvetica;letter-spacing:-1.10000002px;white-space:nowrap;fill:#000;fill-rule:evenodd" id="tspan85" x="1037" y="759">GND</tspan></text><text id="text90" font-size="48" font-weight="normal" style="font-weight:400;font-size:48px;font-family:Helvetica;white-space:nowrap;display:block;fill:none;fill-rule:evenodd"><tspan style="font-size:48px;font-family:Helvetica;white-space:nowrap;fill:#fff;fill-rule:evenodd" id="tspan88" x="342" y="47">0</tspan></text><text id="text94" font-size="48" font-weight="normal" style="font-weight:400;font-size:48px;font-family:Helvetica;white-space:nowrap;display:block;fill:none;fill-rule:evenodd"><tspan style="font-size:48px;font-family:Helvetica;white-space:nowrap;fill:#fff;fill-rule:evenodd" id="tspan92" x="444" y="47">1</tspan></text><text id="text98" font-size="48" font-weight="normal" style="font-weight:400;font-size:48px;font-family:Helvetica;white-space:nowrap;display:block;fill:none;fill-rule:evenodd"><tspan style="font-size:48px;font-family:Helvetica;white-space:nowrap;fill:#fff;fill-rule:evenodd" id="tspan96" x="547" y="47">2</tspan></text><text id="text102" font-size="48" font-weight="normal" style="font-weight:400;font-size:48px;font-family:Helvetica;white-space:nowrap;display:block;fill:none;fill-rule:evenodd"><tspan style="font-size:48px;font-family:Helvetica;white-space:nowrap;fill:#fff;fill-rule:evenodd" id="tspan100" x="649" y="47">3</tspan></text><text id="4" font-size="48" font-weight="normal" style="font-weight:400;font-size:48px;font-family:Helvetica;white-space:nowrap;display:block;fill:none;fill-rule:evenodd"><tspan style="font-size:48px;font-family:Helvetica;white-space:nowrap;fill:#fff;fill-rule:evenodd" id="tspan104" x="750" y="47">4</tspan></text><text id="X" font-size="48" font-weight="normal" style="font-weight:400;font-size:48px;font-family:Helvetica;white-space:nowrap;display:block;fill:none;fill-rule:evenodd"><tspan style="font-size:48px;font-family:Helvetica;white-space:nowrap;fill:#fff;fill-rule:evenodd" id="tspan107" x="750" y="-10">X</tspan></text><text id="text112" font-size="48" font-weight="normal" style="font-weight:400;font-size:48px;font-family:Helvetica;white-space:nowrap;display:block;fill:none;fill-rule:evenodd"><tspan style="font-size:48px;font-family:Helvetica;white-space:nowrap;fill:#fff;fill-rule:evenodd" id="tspan110" x="277" y="219">1</tspan></text><text id="text116" font-size="48" font-weight="normal" style="font-weight:400;font-size:48px;font-family:Helvetica;white-space:nowrap;display:block;fill:none;fill-rule:evenodd"><tspan style="font-size:48px;font-family:Helvetica;white-space:nowrap;fill:#fff;fill-rule:evenodd" id="tspan114" x="277" y="321">2</tspan></text><text id="text120" font-size="48" font-weight="normal" style="font-weight:400;font-size:48px;font-family:Helvetica;white-space:nowrap;display:block;fill:none;fill-rule:evenodd"><tspan style="font-size:48px;font-family:Helvetica;white-space:nowrap;fill:#fff;fill-rule:evenodd" id="tspan118" x="277" y="422">3</tspan></text><text id="text124" font-size="48" font-weight="normal" style="font-weight:400;font-size:48px;font-family:Helvetica;white-space:nowrap;display:block;fill:none;fill-rule:evenodd"><tspan style="font-size:48px;font-family:Helvetica;white-space:nowrap;fill:#fff;fill-rule:evenodd" id="tspan122" x="277" y="523">4</tspan></text><text id="Y" font-size="48" font-weight="normal" style="font-weight:400;font-size:48px;font-family:Helvetica;white-space:nowrap;display:block;fill:none;fill-rule:evenodd"><tspan style="font-size:48px;font-family:Helvetica;white-space:nowrap;fill:#fff;fill-rule:evenodd" id="tspan126" x="237" y="523">Y</tspan></text></g></g><g id="buttons" mask="url(#mask-2)" style="fill:none;fill-rule:evenodd"><g style="fill:none;fill-rule:evenodd" id="g144" transform="translate(68,303)"><g id="b-triangle" transform="translate(1063)" style="fill:none;fill-rule:evenodd"><polygon id="b-back" points="0 0 95.5 0 0 95.7" class="flavour banana" style="fill:#ff0;fill-rule:evenodd"/><path id="B" d="m 21.6,22.1 c 2,0 3.5,-0.2 4.6,-0.8 1.7,-0.9 2.6,-2.4 2.6,-4.6 0,-2.3 -0.9,-3.8 -2.8,-4.6 -1,-0.4 -2.5,-0.6 -4.6,-0.6 H 13.1 V 22.1 Z M 23.2,38 c 2.8,0 4.9,-0.8 6.1,-2.5 0.7,-1 1.1,-2.3 1.1,-3.8 0,-2.5 -1.1,-4.2 -3.3,-5.1 -1.2,-0.5 -2.8,-0.7 -4.7,-0.7 H 13.1 V 38 Z M 8.5,7.6 h 14.8 c 4.1,0 6.9,1.2 8.6,3.6 1,1.4 1.5,3 1.5,4.9 0,2.2 -0.6,4 -1.8,5.3 -0.7,0.8 -1.6,1.5 -2.8,2.1 1.8,0.6 3.1,1.4 4,2.2 1.5,1.5 2.3,3.6 2.3,6.2 0,2.3 -0.7,4.3 -2.1,6.1 -2.1,2.7 -5.4,4 -9.9,4 H 8.5 Z" style="fill:#000;fill-rule:evenodd"/></g><g id="a-triangle" transform="translate(2,321)" style="fill:none;fill-rule:evenodd"><path id="a-back" d="M 0,95.7 95.5,0 v 95.7 z" class="flavour banana" style="fill:#ff0;fill-rule:evenodd"/><path id="A" d="M 73.7,68.2 68.5,53 62.9,68.2 Z M 66,47.9 h 5.3 L 83.8,82.3 H 78.7 L 75.2,72 H 61.6 l -3.8,10.3 h -4.7 z" style="fill:#000;fill-rule:evenodd"/></g><g id="ButtonA" transform="translate(0,151)" style="fill:none;fill-rule:evenodd"><rect id="button-chip-a" width="145" height="145" x="0" y="0" style="fill:#999;fill-rule:evenodd"/><circle id="button-a" cx="71.5" cy="73.5" r="44.5" style="fill:#000;fill-rule:evenodd"/></g><g id="ButtonB" transform="translate(1016,151)" style="fill:none;fill-rule:evenodd"><rect id="button-chip-b" width="145" height="145" x="0" y="0" style="fill:#999;fill-rule:evenodd"/><circle id="button-b" cx="72.5" cy="73.5" r="44.5" style="fill:#000;fill-rule:evenodd"/></g></g></g><g id="Pattern" mask="url(#mask-2)" style="fill:#ff0;fill-rule:evenodd"><polygon id="triangle-3" points="597 0 488.4 0 488.4 108.3" class="flavour banana" style="fill:#ff0;fill-rule:evenodd"/><polygon id="triangle-2" points="484.4 0 324 0 324 160" class="flavour banana" style="fill:#ff0;fill-rule:evenodd"/><polygon id="triangle-1" points="323.7 0 0 0 0 322.9" class="flavour banana" style="fill:#ff0;fill-rule:evenodd"/></g><g style="fill:none;fill-rule:evenodd" id="g157" mask="url(#mask-2)"><g style="fill:none;fill-rule:evenodd" id="g155" transform="translate(533,108)"><rect id="Face" width="232" height="129" x="0" y="0" class="flavour banana" rx="64" style="fill:#ff0;fill-rule:evenodd"/><path id="mask" d="m 116.5,27 h 51 c 20.7,0 37.5,16.8 37.5,37.5 0,20.7 -16.8,37.5 -37.5,37.5 h -51 -51 C 44.8,102 28,85.2 28,64.5 28,43.8 44.8,27 65.5,27 Z" style="fill:#000;fill-rule:evenodd"/><path id="Eye1" d="m 65,77 c 7.7,0 14,-5.3 14,-13 0,-7.7 -6.3,-14 -14,-14 -7.7,0 -14,6.3 -14,14 0,7.7 6.3,13 14,13 z" class="flavour banana" style="fill:#ff0;fill-rule:evenodd"/><path id="Eye2" d="m 167,77 c 7.7,0 14,-5.3 14,-13 0,-7.7 -6.3,-14 -14,-14 -7.7,0 -14,6.3 -14,14 0,7.7 6.3,13 14,13 z" class="flavour banana" style="fill:#ff0;fill-rule:evenodd"/></g></g></g></g><g id="g2013" transform="translate(148,150)"><path id="rect1464-2" d="m 109.04954,1013.0173 c 28.4869,0 51.41817,22.8943 51.49894,51.3619 h 0.0111 v 0.1487 25.3437 62.8163 H 57.527195 v -62.8163 -25.3437 -0.1487 h 0.01171 c 0.08077,-28.4676 23.023164,-51.3619 51.510635,-51.3619 z" style="opacity:1;vector-effect:none;fill:#ccc;fill-opacity:1;stroke:none;stroke-width:.5;stroke-linecap:round;stroke-linejoin:round;stroke-miterlimit:4;stroke-dasharray:none;stroke-dashoffset:0;stroke-opacity:1"/><path id="path1554-5" d="m -3.1414505,309.7367 c 4.8670999,0 8.7849999,3.91158 8.7987999,8.77539 h 0.0019 v 0.0254 4.33008 10.73242 H -11.94425 v -10.73242 -4.33008 -0.0254 h 0.002 c 0.0138,-4.86381 3.9335995,-8.77539 8.8007995,-8.77539 z" transform="matrix(5.8529501,0,0,5.8529501,127.4363,-799.85615)" style="opacity:1;vector-effect:none;fill:#000;fill-opacity:1;stroke:none;stroke-width:.08542701;stroke-linecap:round;stroke-linejoin:round;stroke-miterlimit:4;stroke-dasharray:none;stroke-dashoffset:0;stroke-opacity:1;filter:url(#filter1592-5)"/><path style="opacity:1;vector-effect:none;fill:#ccc;fill-opacity:1;stroke:url(#linearGradient1655);stroke-width:.5;stroke-linecap:round;stroke-linejoin:round;stroke-miterlimit:4;stroke-dasharray:none;stroke-dashoffset:0;stroke-opacity:1" id="path1544-4" d="m 109.04954,1013.0173 c 28.4869,0 51.41817,22.8943 51.49894,51.3619 h 0.0111 v 0.1487 25.3437 62.8163 H 57.527195 v -62.8163 -25.3437 -0.1487 h 0.01171 c 0.08077,-28.4676 23.023164,-51.3619 51.510635,-51.3619 z"/><path style="clip-rule:evenodd;fill:red;fill-opacity:1;stroke-width:1" id="path1030-7" d="m 72.112358,1148.6272 c -17.638507,0.5967 -34.909907,9.2303 -45.122468,23.7301 -10.005565,12.6654 -11.706468,29.4988 -11.065845,45.1107 v 97.7428 c 1.940318,7.2468 0.365224,15.9056 4.055808,22.9414 1.965379,9.6403 6.946023,19.1706 12.302866,27.6108 5.177672,5.9506 9.186111,12.7114 15.889548,17.4437 5.974463,5.858 13.030387,10.2624 20.567243,13.8164 8.310141,4.7393 17.980425,7.0105 27.303031,8.8169 10.348259,0.3278 21.182169,2.3913 30.805219,-0.666 9.52925,-2.4618 19.13006,-5.3538 27.66054,-10.4059 8.14436,-4.178 15.26575,-10.2763 21.79953,-16.4923 5.69399,-6.9267 11.93683,-13.411 15.38019,-21.9201 4.9465,-8.4932 7.45006,-18.299 9.35421,-27.8732 0.91526,-20.0095 0.78705,-112.0641 1.2397,-132.0953 -2.6741,-9.1215 -5.43717,-18.8569 -12.17415,-26.2211 -9.7957,-13.5439 -26.67644,-21.0262 -43.22973,-21.3376 -24.90899,-0.4402 -49.846522,-0.088 -74.765692,-0.2014 z"/><rect style="opacity:1;vector-effect:none;fill:red;fill-opacity:1;stroke:none;stroke-width:.49999997;stroke-linecap:round;stroke-linejoin:round;stroke-miterlimit:4;stroke-dasharray:none;stroke-dashoffset:0;stroke-opacity:1" id="rect1602-0" width="42.518" height="154.944" x="87.785" y="1353.333" rx="21.259"/><text id="text1687" x="37.144" y="1301.031" xml:space="preserve" style="font-style:normal;font-variant:normal;font-weight:400;font-stretch:normal;font-size:74.71433258px;line-height:1.25;font-family:sans-serif;-inkscape-font-specification:'sans-serif, Normal';font-variant-ligatures:normal;font-variant-caps:normal;font-variant-numeric:normal;font-feature-settings:normal;text-align:start;letter-spacing:.1px;word-spacing:0;writing-mode:lr-tb;text-anchor:start;fill:#000;fill-opacity:1;stroke:#000;stroke-width:2.671;stroke-miterlimit:4;stroke-dasharray:none;stroke-opacity:1"><tspan style="font-style:normal;font-variant:normal;font-weight:400;font-stretch:normal;font-size:74.71433258px;font-family:sans-serif;-inkscape-font-specification:'sans-serif, Normal';font-variant-ligatures:normal;font-variant-caps:normal;font-variant-numeric:normal;font-feature-settings:normal;text-align:start;letter-spacing:4.18999958px;writing-mode:lr-tb;text-anchor:start;stroke:#000;stroke-width:2.671;stroke-miterlimit:4;stroke-dasharray:none;stroke-opacity:1" id="tspan1685" x="37.144" y="1301.031">DIN</tspan></text></g><g id="g2004" transform="translate(147.44938,148.6208)"><path style="opacity:1;vector-effect:none;fill:#ccc;fill-opacity:1;stroke:none;stroke-width:.5;stroke-linecap:round;stroke-linejoin:round;stroke-miterlimit:4;stroke-dasharray:none;stroke-dashoffset:0;stroke-opacity:1" id="path1913" d="m 934.07238,1013.0173 c 28.4869,0 51.41817,22.8943 51.49894,51.3619 h 0.0117 v 0.1487 25.3437 62.8163 h -103.0324 v -62.8163 -25.3437 -0.1487 h 0.0117 c 0.0808,-28.4676 23.02317,-51.3619 51.51065,-51.3619 z"/><path style="opacity:1;vector-effect:none;fill:#000;fill-opacity:1;stroke:none;stroke-width:.08542701;stroke-linecap:round;stroke-linejoin:round;stroke-miterlimit:4;stroke-dasharray:none;stroke-dashoffset:0;stroke-opacity:1;filter:url(#filter1592-5)" id="path1915" d="m 137.81701,309.7367 c 4.8671,0 8.785,3.91158 8.7988,8.77539 h 0.002 v 0.0254 4.33008 10.73242 h -17.6035 v -10.73242 -4.33008 -0.0254 h 0.002 c 0.0138,-4.86381 3.9336,-8.77539 8.8008,-8.77539 z" transform="matrix(5.8529501,0,0,5.8529501,127.4363,-799.85615)"/><path id="path1917" d="m 934.07238,1013.0173 c 28.4869,0 51.41817,22.8943 51.49894,51.3619 h 0.0117 v 0.1487 25.3437 62.8163 h -103.0324 v -62.8163 -25.3437 -0.1487 h 0.0117 c 0.0808,-28.4676 23.02317,-51.3619 51.51065,-51.3619 z" style="opacity:1;vector-effect:none;fill:#ccc;fill-opacity:1;stroke:url(#linearGradient1927);stroke-width:.5;stroke-linecap:round;stroke-linejoin:round;stroke-miterlimit:4;stroke-dasharray:none;stroke-dashoffset:0;stroke-opacity:1"/><path id="path1919" d="m 897.13518,1148.6272 c -17.63851,0.5967 -34.90993,9.2303 -45.12245,23.7301 -10.00556,12.6654 -11.70648,29.4988 -11.06588,45.1107 v 97.7428 c 1.94032,7.2468 0.36523,15.9056 4.05581,22.9414 1.96542,9.6403 6.94604,19.1706 12.3029,27.6108 5.17763,5.9506 9.18609,12.7114 15.88953,17.4437 5.97445,5.858 13.03042,10.2624 20.56726,13.8164 8.31014,4.7393 17.98044,7.0105 27.30302,8.8169 10.34825,0.3278 21.18218,2.3913 30.80519,-0.666 9.52931,-2.4618 19.13007,-5.3538 27.66057,-10.4059 8.14438,-4.178 15.26573,-10.2763 21.79957,-16.4923 5.694,-6.9267 11.9368,-13.411 15.3801,-21.9201 4.9465,-8.4932 7.4501,-18.299 9.3543,-27.8732 0.9152,-20.0095 0.787,-112.0641 1.2397,-132.0953 -2.6741,-9.1215 -5.4372,-18.8569 -12.1742,-26.2211 -9.7957,-13.5439 -26.67641,-21.0262 -43.22972,-21.3376 -24.90899,-0.4402 -49.84654,-0.088 -74.7657,-0.2014 z" style="clip-rule:evenodd;fill:red;fill-opacity:1;stroke-width:1"/><rect id="rect1921" width="42.518" height="154.944" x="912.807" y="1353.333" rx="21.259" style="opacity:1;vector-effect:none;fill:red;fill-opacity:1;stroke:none;stroke-width:.49999997;stroke-linecap:round;stroke-linejoin:round;stroke-miterlimit:4;stroke-dasharray:none;stroke-dashoffset:0;stroke-opacity:1"/><text style="font-style:normal;font-variant:normal;font-weight:400;font-stretch:normal;font-size:74.66666412px;line-height:1.25;font-family:sans-serif;-inkscape-font-specification:'sans-serif, Normal';font-variant-ligatures:normal;font-variant-caps:normal;font-variant-numeric:normal;font-feature-settings:normal;text-align:start;letter-spacing:0;word-spacing:0;writing-mode:lr-tb;text-anchor:start;fill:#000;fill-opacity:1;stroke:#000;stroke-width:2.671;stroke-miterlimit:4;stroke-dasharray:none;stroke-opacity:1" id="text1925" x="852.563" y="1301.8" xml:space="preserve"><tspan id="tspan1923" x="852.563" y="1301.8" style="font-style:normal;font-variant:normal;font-weight:400;font-stretch:normal;font-size:74.66666412px;font-family:sans-serif;-inkscape-font-specification:'sans-serif, Normal';font-variant-ligatures:normal;font-variant-caps:normal;font-variant-numeric:normal;font-feature-settings:normal;text-align:start;writing-mode:lr-tb;text-anchor:start;stroke:#000;stroke-width:2.671;stroke-miterlimit:4;stroke-dasharray:none;stroke-opacity:1">VDD</tspan></text></g><g id="g1995" transform="translate(146,150)"><path id="path1929" d="m 1194.8554,1013.0173 c 28.4869,0 51.4182,22.8943 51.499,51.3619 h 0.012 v 0.1487 25.3437 62.8163 H 1143.334 v -62.8163 -25.3437 -0.1487 h 0.012 c 0.081,-28.4676 23.0231,-51.3619 51.5106,-51.3619 z" style="opacity:1;vector-effect:none;fill:#ccc;fill-opacity:1;stroke:none;stroke-width:.5;stroke-linecap:round;stroke-linejoin:round;stroke-miterlimit:4;stroke-dasharray:none;stroke-dashoffset:0;stroke-opacity:1"/><path id="path1931" d="m 182.37284,309.7367 c 4.8671,0 8.785,3.91158 8.7988,8.77539 h 0.002 v 0.0254 4.33008 10.73242 h -17.6035 v -10.73242 -4.33008 -0.0254 h 0.002 c 0.0138,-4.86381 3.9336,-8.77539 8.8008,-8.77539 z" transform="matrix(5.8529501,0,0,5.8529501,127.4363,-799.85615)" style="opacity:1;vector-effect:none;fill:#000;fill-opacity:1;stroke:none;stroke-width:.08542701;stroke-linecap:round;stroke-linejoin:round;stroke-miterlimit:4;stroke-dasharray:none;stroke-dashoffset:0;stroke-opacity:1;filter:url(#filter1592-5)"/><path style="opacity:1;vector-effect:none;fill:#ccc;fill-opacity:1;stroke:url(#linearGradient1943);stroke-width:.5;stroke-linecap:round;stroke-linejoin:round;stroke-miterlimit:4;stroke-dasharray:none;stroke-dashoffset:0;stroke-opacity:1" id="path1933" d="m 1194.8554,1013.0173 c 28.4869,0 51.4182,22.8943 51.499,51.3619 h 0.012 v 0.1487 25.3437 62.8163 H 1143.334 v -62.8163 -25.3437 -0.1487 h 0.012 c 0.081,-28.4676 23.0231,-51.3619 51.5106,-51.3619 z"/><path style="clip-rule:evenodd;fill:red;fill-opacity:1;stroke-width:1" id="path1935" d="m 1157.9182,1148.6272 c -17.6385,0.5967 -34.9099,9.2303 -45.1224,23.7301 -10.0056,12.6654 -11.7065,29.4988 -11.0659,45.1107 v 97.7428 c 1.9403,7.2468 0.3652,15.9056 4.0558,22.9414 1.9654,9.6403 6.9461,19.1706 12.3029,27.6108 5.1776,5.9506 9.1861,12.7114 15.8895,17.4437 5.9745,5.858 13.0305,10.2624 20.5673,13.8164 8.3101,4.7393 17.9804,7.0105 27.303,8.8169 10.3483,0.3278 21.1822,2.3913 30.8052,-0.666 9.5293,-2.4618 19.1301,-5.3538 27.6606,-10.4059 8.1444,-4.178 15.2657,-10.2763 21.7995,-16.4923 5.694,-6.9267 11.9368,-13.411 15.3802,-21.9201 4.9465,-8.4932 7.4501,-18.299 9.3542,-27.8732 0.9152,-20.0095 0.7871,-112.0641 1.2397,-132.0953 -2.6741,-9.1215 -5.4372,-18.8569 -12.1742,-26.2211 -9.7956,-13.5439 -26.6764,-21.0262 -43.2297,-21.3376 -24.909,-0.4402 -49.8465,-0.088 -74.7657,-0.2014 z"/><rect style="opacity:1;vector-effect:none;fill:red;fill-opacity:1;stroke:none;stroke-width:.49999997;stroke-linecap:round;stroke-linejoin:round;stroke-miterlimit:4;stroke-dasharray:none;stroke-dashoffset:0;stroke-opacity:1" id="rect1937" width="42.518" height="154.944" x="1173.591" y="1353.333" rx="21.259"/><text id="text1941" x="1099.729" y="1307.572" transform="scale(1.0073286,0.99272472)" xml:space="preserve" style="font-style:normal;font-variant:normal;font-weight:400;font-stretch:normal;font-size:74.66666412px;line-height:1.25;font-family:sans-serif;-inkscape-font-specification:'sans-serif, Normal';font-variant-ligatures:normal;font-variant-caps:normal;font-variant-numeric:normal;font-feature-settings:normal;text-align:start;letter-spacing:0;word-spacing:0;writing-mode:lr-tb;text-anchor:start;fill:#000;fill-opacity:1;stroke:#000;stroke-width:2.671;stroke-miterlimit:4;stroke-dasharray:none;stroke-opacity:1"><tspan style="font-style:normal;font-variant:normal;font-weight:400;font-stretch:normal;font-size:74.66666412px;font-family:sans-serif;-inkscape-font-specification:'sans-serif, Normal';font-variant-ligatures:normal;font-variant-caps:normal;font-variant-numeric:normal;font-feature-settings:normal;text-align:start;writing-mode:lr-tb;text-anchor:start;stroke:#000;stroke-width:2.671;stroke-miterlimit:4;stroke-dasharray:none;stroke-opacity:1" id="tspan1939" x="1099.729" y="1307.572">GND</tspan></text></g></svg>